<svg width="64" height="64" viewBox="0 0 64 64" xmlns="http://www.w3.org/2000/svg">
  <path d="M22 14C21 9.6 24.6 6.4 28.4 7.4C30 4.4 35 4 37 7C40.6 6 44 8.6 43 12.6C40 11 37.4 11.6 35.6 13.4C33 11.4 29 11.4 27 13.6C25.4 12.6 23.6 12.8 22 14Z" fill="#4a4856" opacity="0.55" />
  <path d="M26 12.4C26.4 10 28.4 9 30.4 9.6C31.6 8 34.4 8 35.4 9.8C37.4 9.4 39 10.4 39.4 12C37.6 11.6 36 12 34.8 13C33 11.8 30.4 11.8 29 13.2C28 12.6 27 12.4 26 12.4Z" fill="#6b6878" opacity="0.5" />
  <path d="M24 18.1Q22.4 8.6 17.8 7.4Q16.6 12 24 18.1Z" fill="#c84a32" />
  <path d="M39.8 17.3Q46.8 10.9 45.5 6.6Q41.2 7.9 39.8 17.3Z" fill="#c84a32" />
  <path d="M48.2 34.8Q56.4 39.9 60.5 37Q57.6 32.9 48.2 34.8Z" fill="#c84a32" />
  <path d="M41 46.4Q42.7 54.8 46.8 55.7Q47.7 51.6 41 46.4Z" fill="#c84a32" />
  <path d="M17.8 40.2Q8.3 41.8 7.1 46.4Q11.7 47.6 17.8 40.2Z" fill="#c84a32" />
  <path d="M15.6 27.6Q8.7 22.6 5 24.7Q7.1 28.4 15.6 27.6Z" fill="#c84a32" />
  <path d="M27.7 48Q22.5 55 24.8 58.9Q28.7 56.6 27.7 48Z" fill="#c84a32" />
  <circle cx="32" cy="33" r="16.5" fill="#c84a32" />
  <circle cx="32" cy="18" r="8.5" fill="#c84a32" />
  <circle cx="42.6" cy="22.4" r="9.6" fill="#c84a32" />
  <circle cx="46.9" cy="31.7" r="8.6" fill="#c84a32" />
  <circle cx="44.3" cy="41.6" r="9.4" fill="#c84a32" />
  <circle cx="34.6" cy="47.8" r="8.8" fill="#c84a32" />
  <circle cx="23.4" cy="45.3" r="9.8" fill="#c84a32" />
  <circle cx="17.5" cy="36.9" r="8.6" fill="#c84a32" />
  <circle cx="18.4" cy="26.7" r="9.4" fill="#c84a32" />
  <circle cx="25.7" cy="19.4" r="8.4" fill="#c84a32" />
  <circle cx="32" cy="32.4" r="14" fill="#f2734b" />
  <circle cx="36.2" cy="20.7" r="7.6" fill="#f2734b" />
  <circle cx="43.7" cy="28.2" r="8" fill="#f2734b" />
  <circle cx="43.2" cy="37.6" r="7.6" fill="#f2734b" />
  <circle cx="36.2" cy="44.1" r="8" fill="#f2734b" />
  <circle cx="26.8" cy="43.6" r="7.8" fill="#f2734b" />
  <circle cx="20.3" cy="36.6" r="8" fill="#f2734b" />
  <circle cx="20.8" cy="27.2" r="7.4" fill="#f2734b" />
  <circle cx="27.8" cy="20.7" r="7.4" fill="#f2734b" />
  <circle cx="32" cy="31.8" r="11" fill="#ffa65e" />
  <circle cx="36.7" cy="23.7" r="6" fill="#ffa65e" />
  <circle cx="41.4" cy="31" r="6.4" fill="#ffa65e" />
  <circle cx="38" cy="39" r="6" fill="#ffa65e" />
  <circle cx="30.4" cy="41.1" r="6.4" fill="#ffa65e" />
  <circle cx="23.9" cy="36.5" r="6.2" fill="#ffa65e" />
  <circle cx="23.2" cy="28.6" r="6" fill="#ffa65e" />
  <circle cx="29.6" cy="22.7" r="5.6" fill="#ffa65e" />
  <circle cx="32" cy="31.4" r="8" fill="#ffd966" />
  <circle cx="36.6" cy="27.5" r="4.6" fill="#ffd966" />
  <circle cx="37.2" cy="34.4" r="4.8" fill="#ffd966" />
  <circle cx="31" cy="37.3" r="4.6" fill="#ffd966" />
  <circle cx="26.1" cy="32.4" r="4.8" fill="#ffd966" />
  <circle cx="29" cy="26.2" r="4.4" fill="#ffd966" />
  <circle cx="32.6" cy="30.6" r="5.4" fill="#fff6c8" />
  <circle cx="30.4" cy="28.6" r="2" fill="#ffffff" opacity="0.85" />
  <path d="M15.2 22.3Q10.8 17.9 8.6 18.5Q9.2 20.7 15.2 22.3Z" fill="#ffd966" />
  <path d="M49.3 22.8Q55.4 21.6 56.2 19.2Q53.8 18.4 49.3 22.8Z" fill="#ffd966" />
  <path d="M48.1 44.6Q51.1 48.7 53.1 48.5Q52.9 46.5 48.1 44.6Z" fill="#ffa65e" />
  <path d="M33.7 51.5Q32.6 57.6 34.3 59.1Q35.8 57.4 33.7 51.5Z" fill="#ffd966" />
  <path d="M19.4 48.1Q15.3 51.1 15.5 53.1Q17.5 52.9 19.4 48.1Z" fill="#ffa65e" />
  <path d="M12.5 33.7Q6.4 32.5 4.8 34.3Q6.6 35.9 12.5 33.7Z" fill="#ffd966" />
  <path d="M18.3 16.8Q16 12.2 14.1 12.1Q14 14 18.3 16.8Z" fill="#ffa65e" />
  <circle cx="58.9" cy="28.2" r="0.9" fill="#7a2e22" />
  <circle cx="21.9" cy="57" r="0.9" fill="#7a2e22" />
  <circle cx="7.3" cy="20.5" r="0.8" fill="#7a2e22" />
</svg>
