<svg xmlns="http://www.w3.org/2000/svg" width="260" height="140" viewBox="0 0 260 140" role="img" aria-hidden="true">
  <style>svg{overflow:visible}.dragon,.seg,.fin,.whisker,.mane,.leg{transform-box:view-box}.dragon{animation:bob 2.2s ease-in-out infinite;transform-origin:132px 70px}.seg{animation:wave 1.45s ease-in-out infinite}.s1{animation-delay:-1.28s}.s2{animation-delay:-1.16s}.s3{animation-delay:-1.04s}.s4{animation-delay:-.92s}.s5{animation-delay:-.8s}.s6{animation-delay:-.68s}.s7{animation-delay:-.56s}.s8{animation-delay:-.44s}.s9{animation-delay:-.32s}.s10{animation-delay:-.2s}.s11{animation-delay:-.08s}.fin{animation:fin 1.1s ease-in-out infinite;transform-origin:center}.whisker{animation:whisker 1.4s ease-in-out infinite;transform-origin:220px 58px}.mane{animation:mane 1.2s ease-in-out infinite;transform-origin:204px 47px}.leg{animation:leg .95s ease-in-out infinite;transform-origin:center}.l2,.l4{animation-delay:-.45s}@keyframes bob{0%,100%{transform:translateY(0) rotate(-1.5deg)}50%{transform:translateY(-6px) rotate(1.5deg)}}@keyframes wave{0%,100%{transform:translateY(-3px)}50%{transform:translateY(4px)}}@keyframes fin{0%,100%{transform:rotate(-5deg) translateY(0)}50%{transform:rotate(7deg) translateY(3px)}}@keyframes whisker{0%,100%{transform:rotate(-4deg)}50%{transform:rotate(6deg)}}@keyframes mane{0%,100%{transform:translateY(-2px)}50%{transform:translateY(3px)}}@keyframes leg{0%,100%{transform:translateY(0) rotate(-4deg)}50%{transform:translateY(3px) rotate(5deg)}}</style>
  <ellipse cx="132" cy="111" rx="91" ry="12" fill="#7590a7" opacity=".16"/>
  <g class="dragon">
    <path d="M19 91c23-38 57-43 89-20 27 19 44 24 70-9 18-23 39-30 66-15" fill="none" stroke="#6cb6c8" stroke-width="38" stroke-linecap="round" stroke-linejoin="round" opacity=".16"/>
    <g class="fin s3"><path class="fin" d="M62 55c5-17 18-27 34-30-4 18-13 31-30 41z" fill="#8fd5df" opacity=".5"/></g>
    <g class="fin s6"><path class="fin" d="M137 76c6-18 20-28 37-29-5 18-16 31-34 40z" fill="#8fd5df" opacity=".5"/></g>
    <g class="fin s9"><path class="fin" d="M193 47c7-15 19-23 34-22-5 15-15 26-31 32z" fill="#8fd5df" opacity=".55"/></g>
    <g class="seg s1"><path d="M28 84c-12 2-21 9-28 20 13 1 24-4 32-15z" fill="#8fd5df" opacity=".72"/><path d="M30 82c-13-3-22-12-27-26 14 1 25 8 31 22z" fill="#8fd5df" opacity=".64"/><ellipse cx="27" cy="85" rx="9" ry="6" transform="rotate(-35 27 85)" fill="#fff6e8"/><path d="M20 82c6-5 13-6 20-2-4 5-10 8-18 8z" fill="#f26f3f"/></g>
    <g class="seg s2"><ellipse cx="43" cy="71" rx="17" ry="12" transform="rotate(-37 43 71)" fill="#fff6e8"/><path d="M31 68c9-8 20-10 31-5-5 9-16 14-29 13z" fill="#ee663a" opacity=".94"/><path d="M39 81q5-7 13-9M30 74q7-8 17-10" stroke="#d7c9ba" stroke-width="1.1" fill="none" opacity=".6"/></g>
    <g class="seg s3"><ellipse cx="63" cy="60" rx="23" ry="15" transform="rotate(-20 63 60)" fill="#fff6e8"/><path d="M51 51c14-8 30-2 37 9-15 2-27 1-39-4z" fill="#ee663a"/><path d="M61 71q7-8 17-11M48 63q9-9 21-12" stroke="#d7c9ba" stroke-width="1.1" fill="none" opacity=".65"/></g>
    <g class="seg s4"><ellipse cx="88" cy="63" rx="24" ry="16" transform="rotate(17 88 63)" fill="#fff6e8"/><path d="M79 51c10-2 22 3 31 12-9 7-24 9-34 4z" fill="#111821" opacity=".9"/><path d="M86 75q8-8 19-10M73 66q9-8 21-11" stroke="#d7c9ba" stroke-width="1.1" fill="none" opacity=".65"/></g>
    <g class="seg s5"><ellipse cx="114" cy="77" rx="24" ry="16" transform="rotate(33 114 77)" fill="#fff6e8"/><path d="M97 74c12-12 30-14 43-5-8 9-24 15-40 13z" fill="#ee663a"/><path d="M111 90q8-8 18-11M99 80q9-9 21-11" stroke="#d7c9ba" stroke-width="1.1" fill="none" opacity=".65"/></g>
    <g class="seg s6"><ellipse cx="141" cy="84" rx="25" ry="16" transform="rotate(12 141 84)" fill="#fff6e8"/><path d="M129 72c15-3 28 2 37 13-13 5-28 5-40-2z" fill="#ee663a" opacity=".92"/><circle cx="151" cy="72" r="4" fill="#111821" opacity=".85"/><path d="M137 96q9-8 19-10M125 86q10-8 22-10" stroke="#d7c9ba" stroke-width="1.1" fill="none" opacity=".65"/></g>
    <g class="seg s7"><ellipse cx="169" cy="76" rx="25" ry="16" transform="rotate(-25 169 76)" fill="#fff6e8"/><path d="M155 72c9-12 24-18 39-14-4 12-17 22-34 25z" fill="#ee663a"/><path d="M168 88q7-9 17-13M154 80q8-10 20-14" stroke="#d7c9ba" stroke-width="1.1" fill="none" opacity=".65"/></g>
    <g class="seg s8"><ellipse cx="195" cy="57" rx="24" ry="15" transform="rotate(-31 195 57)" fill="#fff6e8"/><path d="M182 53c12-10 28-12 40-5-7 9-21 15-36 14z" fill="#111821" opacity=".88"/><path d="M195 69q7-9 16-12M181 61q8-9 19-13" stroke="#d7c9ba" stroke-width="1.1" fill="none" opacity=".65"/></g>
    <g class="mane"><path d="M196 39c-7-14-1-27 13-35 0 17-4 30-15 41zM207 42c2-16 12-27 29-31-5 16-14 27-29 37zM216 53c14-9 28-9 40 1-13 8-27 10-42 6z" fill="#f7a0b6" opacity=".75"/></g>
    <g class="seg s9"><path d="M207 48c10-18 36-18 45-1 7 13 0 29-16 33-16 4-34-3-39-17-2-5 4-8 10-15z" fill="#fff6e8"/><path d="M212 44c9-10 26-10 35 0-9 4-22 5-35 0z" fill="#ee663a"/><path d="M230 33c7-9 20-9 27 0-10 3-19 4-27 0z" fill="#ee663a"/><ellipse cx="233" cy="54" rx="3" ry="4" fill="#172033"/><path d="M242 60q8 2 13 9" stroke="#8b4b40" stroke-width="2.4" fill="none" stroke-linecap="round"/><path d="M247 68q-11 8-25 7" stroke="#8b4b40" stroke-width="2" fill="none" stroke-linecap="round"/></g>
    <g class="whisker"><path d="M229 63c9 4 17 10 24 20M224 65c8 9 11 20 7 31" stroke="#f1dcc2" stroke-width="2.4" fill="none" stroke-linecap="round"/><path d="M231 66c10 0 20 4 28 12M219 66c2 12-1 23-10 32" stroke="#f1dcc2" stroke-width="1.8" fill="none" stroke-linecap="round"/></g>
    <g class="leg l1"><path d="M82 76c-8 5-12 12-11 20 6 3 12 1 15-5 3-5 7-8 13-10-5-3-11-5-17-5z" fill="#f4d1a5"/><path d="M76 96c-4 4-5 8-3 12 6 1 11-1 14-5 3-3 6-5 10-6-4-4-12-5-21-1z" fill="#f6bf82"/><circle cx="72" cy="108" r="2.1" fill="#e9894b"/><circle cx="79" cy="108" r="2" fill="#e9894b"/><circle cx="86" cy="105" r="1.9" fill="#e9894b"/></g>
    <g class="leg l2"><path d="M125 91c-7 5-11 11-10 18 6 3 12 2 15-4 3-4 7-7 12-8-5-3-11-5-17-6z" fill="#f4d1a5"/><path d="M119 109c-4 4-5 8-3 11 6 1 11-1 14-4 3-3 6-5 10-5-4-4-12-5-21-2z" fill="#f6bf82"/><circle cx="116" cy="121" r="2" fill="#e9894b"/><circle cx="123" cy="121" r="1.9" fill="#e9894b"/><circle cx="130" cy="118" r="1.8" fill="#e9894b"/></g>
    <g class="leg l3"><path d="M160 64c-5 7-6 14-2 20 6 0 11-3 12-9 2-4 5-8 10-11-6-1-13-1-20 0z" fill="#f4d1a5"/><path d="M163 84c-2 5-1 9 2 12 6-1 10-4 12-8 2-3 5-6 9-8-5-3-13-1-23 4z" fill="#f6bf82"/><circle cx="165" cy="97" r="1.9" fill="#e9894b"/><circle cx="172" cy="94" r="1.8" fill="#e9894b"/><circle cx="178" cy="89" r="1.7" fill="#e9894b"/></g>
    <g class="leg l4"><path d="M204 65c-4 7-4 13 0 18 6 0 10-3 12-8 2-4 5-7 9-9-6-1-13-1-21-1z" fill="#f4d1a5"/><path d="M208 83c-2 5 0 9 3 11 5-1 9-4 11-8 2-3 5-5 9-7-5-3-13-1-23 4z" fill="#f6bf82"/><circle cx="211" cy="95" r="1.8" fill="#e9894b"/><circle cx="217" cy="92" r="1.7" fill="#e9894b"/><circle cx="223" cy="87" r="1.6" fill="#e9894b"/></g>
    <path class="fin" d="M35 92c-10 12-19 18-35 21 6-14 16-23 32-29z" fill="#8fd5df" opacity=".62"/>
    <path class="fin" d="M105 90c-13 11-24 15-42 14 10-13 23-19 40-21z" fill="#8fd5df" opacity=".44"/>
    <path class="fin" d="M183 72c-9 14-18 22-34 26 5-15 15-25 31-33z" fill="#8fd5df" opacity=".46"/>
  </g>
</svg>
