<svg width="340" height="132" viewBox="0 0 340 132" xmlns="http://www.w3.org/2000/svg">
  <g opacity="0.98">
    <path
      d="M36 88C14 88 0 74 0 56C0 37 17 24 39 24C44 24 49 25 54 27C61 11 79 0 101 0C124 0 144 13 149 31C155 29 162 28 169 28C190 28 207 39 211 54C218 51 226 50 234 50C263 50 287 68 287 91C287 114 263 132 233 132H79C57 132 36 112 36 88Z"
      fill="#f8fbff"
    />
    <path
      d="M56 92C87 78 147 76 191 82C221 86 244 94 259 103C231 112 198 116 157 116C112 116 74 108 44 95C48 94 52 93 56 92Z"
      fill="#d7d4de"
      opacity="0.74"
    />
    <path
      d="M86 98C107 91 145 89 174 92C193 94 210 98 223 104C202 109 179 112 151 112C121 112 95 107 72 100C76 99 81 98 86 98Z"
      fill="#eadce4"
      opacity="0.78"
    />
  </g>
</svg>
