<svg width="304" height="184" viewBox="0 0 304 184" fill="none" xmlns="http://www.w3.org/2000/svg">
  <defs>
    <filter id="cloudShadowLoft" x="6" y="14" width="292" height="160" filterUnits="userSpaceOnUse">
      <feDropShadow dx="0" dy="12" stdDeviation="11" flood-color="#A7C1DD" flood-opacity="0.12"/>
    </filter>
  </defs>
  <path
    filter="url(#cloudShadowLoft)"
    d="M38 119C25 112 20 101 27 91C34 80 49 75 66 75C79 59 104 50 132 51C147 36 179 31 207 42C229 50 244 65 249 82C264 85 278 94 282 107C288 125 268 137 239 139C220 140 202 136 186 132C164 139 133 139 111 133C86 140 57 135 38 119Z"
    fill="#FFF8F4"
  />
</svg>
