<svg width="280" height="144" viewBox="0 0 280 144" fill="none" xmlns="http://www.w3.org/2000/svg">
  <defs>
    <filter id="cloudShadowWide" x="0" y="0" width="280" height="144" filterUnits="userSpaceOnUse">
      <feDropShadow dx="0" dy="12" stdDeviation="11" flood-color="#9BB8D8" flood-opacity="0.18"/>
    </filter>
  </defs>
  <path
    filter="url(#cloudShadowWide)"
    d="M31 91C21 85 18 76 24 68C31 59 44 56 59 56C70 44 91 37 116 38C130 28 154 25 177 32C195 38 209 49 215 62C232 63 249 70 257 82C266 96 252 108 229 113C211 117 189 115 171 112C151 118 122 118 101 113C77 118 49 110 31 91Z"
    fill="#FFF8F4"
  />
</svg>
