<svg width="100%" viewBox="0 0 430 760" xmlns="http://www.w3.org/2000/svg">
  <defs>
    <linearGradient id="blossomSkyMobile" x1="0" y1="0" x2="0" y2="1">
      <stop offset="0%" stop-color="#aee2f1"/>
      <stop offset="64%" stop-color="#d8f0f6"/>
      <stop offset="100%" stop-color="#eff9fb"/>
    </linearGradient>
    <linearGradient id="blossomHillMobile" x1="0" y1="0" x2="0" y2="1">
      <stop offset="0%" stop-color="#99d957"/>
      <stop offset="100%" stop-color="#71b63d"/>
    </linearGradient>
    <linearGradient id="treeBarkMobile" x1="0" y1="0" x2="1" y2="1">
      <stop offset="0%" stop-color="#2a2345"/>
      <stop offset="100%" stop-color="#18192e"/>
    </linearGradient>
  </defs>

  <rect width="430" height="760" fill="url(#blossomSkyMobile)"/>

  <g fill="#ffffff" opacity="0.9">
    <ellipse cx="88" cy="522" rx="56" ry="22"/>
    <ellipse cx="56" cy="528" rx="36" ry="16"/>
    <ellipse cx="124" cy="530" rx="35" ry="15"/>
  </g>

  <path d="M0 610Q110 586 220 596Q330 606 430 586V760H0Z" fill="url(#blossomHillMobile)"/>
  <path d="M0 626Q122 606 236 616Q340 626 430 608V760H0Z" fill="#7cc647" opacity="0.82"/>

  <g transform="translate(60 176)">
    <path
      d="M144 442
         Q142 342 146 294
         Q150 242 160 200
         Q170 164 174 136
         Q178 110 188 90
         Q198 74 210 72
         Q220 72 226 82
         Q232 94 230 116
         Q228 138 220 154
         Q208 180 206 228
         Q204 284 208 442 Z"
      fill="url(#treeBarkMobile)"
    />

    <g fill="#efb4d2">
      <ellipse cx="42" cy="180" rx="88" ry="52"/>
      <ellipse cx="118" cy="120" rx="100" ry="62"/>
      <ellipse cx="206" cy="96" rx="122" ry="74"/>
      <ellipse cx="300" cy="134" rx="92" ry="54"/>
      <ellipse cx="228" cy="194" rx="118" ry="58"/>
      <ellipse cx="114" cy="198" rx="108" ry="56"/>
    </g>
    <g fill="#f7d3e6" opacity="0.95">
      <ellipse cx="70" cy="166" rx="40" ry="24"/>
      <ellipse cx="138" cy="118" rx="46" ry="28"/>
      <ellipse cx="214" cy="94" rx="56" ry="32"/>
      <ellipse cx="286" cy="126" rx="42" ry="24"/>
      <ellipse cx="224" cy="186" rx="48" ry="26"/>
      <ellipse cx="142" cy="188" rx="44" ry="25"/>
    </g>
    <g fill="#fff0f7" opacity="0.88">
      <ellipse cx="116" cy="154" rx="20" ry="13"/>
      <ellipse cx="182" cy="110" rx="22" ry="14"/>
      <ellipse cx="250" cy="124" rx="20" ry="13"/>
      <ellipse cx="206" cy="166" rx="22" ry="14"/>
    </g>
  </g>

  <g fill="#f3b7d2" opacity="0.88">
    <ellipse cx="336" cy="134" rx="5" ry="3" transform="rotate(22 336 134)"/>
    <ellipse cx="362" cy="214" rx="5" ry="3" transform="rotate(-28 362 214)"/>
    <ellipse cx="308" cy="294" rx="5" ry="3" transform="rotate(34 308 294)"/>
    <ellipse cx="372" cy="392" rx="5" ry="3" transform="rotate(-18 372 392)"/>
    <ellipse cx="330" cy="486" rx="5" ry="3" transform="rotate(30 330 486)"/>
    <ellipse cx="390" cy="584" rx="5" ry="3" transform="rotate(-24 390 584)"/>
  </g>
</svg>
