<svg width="680" height="200" viewBox="0 0 680 200" xmlns="http://www.w3.org/2000/svg">
  <defs>
    <linearGradient id="meadow" x1="0" y1="0" x2="0" y2="1">
      <stop offset="0%" stop-color="#e8c547" />
      <stop offset="60%" stop-color="#d4a73a" />
      <stop offset="100%" stop-color="#9c7a2e" />
    </linearGradient>
    <linearGradient id="farMeadow" x1="0" y1="0" x2="0" y2="1">
      <stop offset="0%" stop-color="#f4d96b" />
      <stop offset="100%" stop-color="#e8c547" />
    </linearGradient>
  </defs>
  <path d="M 0 -14 Q 170 -30 340 -18 Q 510 -6 680 -18 L 680 60 L 0 60 Z" fill="url(#farMeadow)" />
  <path d="M 0 8 Q 170 -10 340 0 Q 510 10 680 -2 L 680 200 L 0 200 Z" fill="url(#meadow)" />
  <g fill="#ffffff" opacity="0.9">
    <circle cx="60" cy="16" r="1.5" />
    <circle cx="120" cy="11" r="1.5" />
    <circle cx="180" cy="19" r="1.5" />
    <circle cx="240" cy="9" r="1.5" />
    <circle cx="300" cy="13" r="1.5" />
    <circle cx="360" cy="7" r="1.5" />
    <circle cx="420" cy="15" r="1.5" />
    <circle cx="480" cy="11" r="1.5" />
    <circle cx="540" cy="17" r="1.5" />
    <circle cx="600" cy="9" r="1.5" />
    <circle cx="90" cy="31" r="1.8" />
    <circle cx="210" cy="33" r="1.8" />
    <circle cx="330" cy="29" r="1.8" />
    <circle cx="450" cy="35" r="1.8" />
    <circle cx="570" cy="31" r="1.8" />
    <circle cx="40" cy="46" r="2" />
    <circle cx="150" cy="51" r="2" />
    <circle cx="270" cy="46" r="2" />
    <circle cx="390" cy="53" r="2" />
    <circle cx="510" cy="47" r="2" />
    <circle cx="630" cy="51" r="2" />
  </g>
</svg>
