<svg width="200" height="300" viewBox="-60 -80 200 300" xmlns="http://www.w3.org/2000/svg">
  <path d="M -30 40 Q -38 75 -45 100 L 45 100 Q 38 75 30 40 Z" fill="#ffffff" />
  <path d="M -8 45 Q -10 75 -12 100 L 12 100 Q 10 75 8 45 Z" fill="#e8e0d0" />
  <path d="M -30 40 Q -35 70 -42 100 L -28 100 Q -22 70 -20 40 Z" fill="#e8e0d0" />
  <path d="M -45 95 Q 0 97 45 95 L 46 102 Q 0 104 -46 102 Z" fill="#b83838" />
  <path d="M -42 99 L -38 97 L -34 99 L -30 97 L -26 99 L -22 97 L -18 99 L -14 97 L -10 99 L -6 97 L -2 99 L 2 97 L 6 99 L 10 97 L 14 99 L 18 97 L 22 99 L 26 97 L 30 99 L 34 97 L 38 99 L 42 97" stroke="#e8c547" stroke-width="1" fill="none" />
  <path d="M -20 5 L -25 45 L 25 45 L 20 5 Z" fill="#ffffff" />
  <path d="M -3 5 L -5 45 L 5 45 L 3 5 Z" fill="#e8e0d0" />
  <rect x="-26" y="40" width="52" height="7" fill="#c84848" />
  <ellipse cx="-8" cy="47" rx="7" ry="5" fill="#c84848" />
  <ellipse cx="8" cy="47" rx="7" ry="5" fill="#c84848" />
  <rect x="-3" y="44" width="6" height="7" fill="#a82828" />
  <path d="M -6 52 L -10 72 L -4 70 L -2 52 Z" fill="#c84848" />
  <path d="M 6 52 L 10 72 L 4 70 L 2 52 Z" fill="#c84848" />
  <ellipse cx="-25" cy="10" rx="9" ry="11" fill="#ffffff" />
  <ellipse cx="25" cy="10" rx="9" ry="11" fill="#ffffff" />
  <ellipse cx="-27" cy="13" rx="6" ry="7" fill="#e8e0d0" />
  <ellipse cx="23" cy="13" rx="6" ry="7" fill="#e8e0d0" />
  <path d="M -28 18 Q -30 35 -30 52" stroke="#f0d4b0" stroke-width="5" fill="none" stroke-linecap="round" />
  <path d="M 28 18 Q 30 35 30 52" stroke="#f0d4b0" stroke-width="5" fill="none" stroke-linecap="round" />
  <path d="M -18 -10 Q -22 5 -24 25 Q -25 50 -22 75 Q -18 90 -8 92 L 8 92 Q 18 90 22 75 Q 25 50 24 25 Q 22 5 18 -10 Q 12 -15 0 -15 Q -12 -15 -18 -10 Z" fill="#1a1a2a" />
  <path d="M -15 0 Q -18 25 -19 55 Q -19 80 -15 88" stroke="#2a2a3a" stroke-width="1.5" fill="none" opacity="0.7" />
  <path d="M 0 0 Q -1 30 0 60 Q 1 85 0 90" stroke="#2a2a3a" stroke-width="1.5" fill="none" opacity="0.7" />
  <path d="M 15 0 Q 18 25 19 55 Q 19 80 15 88" stroke="#2a2a3a" stroke-width="1.5" fill="none" opacity="0.7" />
  <path d="M -22 75 Q -18 85 -15 92 Q -12 88 -8 92" fill="#0a0a18" />
  <path d="M 22 75 Q 18 85 15 92 Q 12 88 8 92" fill="#0a0a18" />
  <ellipse cx="0" cy="-18" rx="5" ry="3" fill="#e8c8a0" />
  <ellipse cx="0" cy="-22" rx="14" ry="10" fill="#1a1a2a" />
  <ellipse cx="0" cy="-26" rx="42" ry="9" fill="#9c7a2e" />
  <ellipse cx="0" cy="-28" rx="42" ry="11" fill="#d4a652" />
  <ellipse cx="0" cy="-31" rx="42" ry="7" fill="#e8c47a" />
  <ellipse cx="0" cy="-40" rx="22" ry="15" fill="#d4a652" />
  <path d="M -22 -40 Q -22 -55 0 -58 Q 22 -55 22 -40 Z" fill="#e8c47a" />
  <ellipse cx="0" cy="-53" rx="15" ry="5" fill="#f0d890" />
  <path d="M -22 -38 Q 0 -35 22 -38 L 22 -34 Q 0 -31 -22 -34 Z" fill="#b8841f" />
  <rect x="-3" y="-37" width="6" height="5" fill="#9c6818" />
  <line x1="-15" y1="-53" x2="-13" y2="-38" stroke="#b8841f" stroke-width="0.5" />
  <line x1="-8" y1="-56" x2="-7" y2="-38" stroke="#b8841f" stroke-width="0.5" />
  <line x1="0" y1="-57" x2="0" y2="-38" stroke="#b8841f" stroke-width="0.5" />
  <line x1="8" y1="-56" x2="7" y2="-38" stroke="#b8841f" stroke-width="0.5" />
  <line x1="15" y1="-53" x2="13" y2="-38" stroke="#b8841f" stroke-width="0.5" />
  <line x1="-35" y1="-27" x2="-33" y2="-22" stroke="#9c7a2e" stroke-width="0.5" />
  <line x1="-25" y1="-30" x2="-24" y2="-22" stroke="#9c7a2e" stroke-width="0.5" />
  <line x1="-15" y1="-32" x2="-14" y2="-23" stroke="#9c7a2e" stroke-width="0.5" />
  <line x1="0" y1="-33" x2="0" y2="-23" stroke="#9c7a2e" stroke-width="0.5" />
  <line x1="15" y1="-32" x2="14" y2="-23" stroke="#9c7a2e" stroke-width="0.5" />
  <line x1="25" y1="-30" x2="24" y2="-22" stroke="#9c7a2e" stroke-width="0.5" />
  <line x1="35" y1="-27" x2="33" y2="-22" stroke="#9c7a2e" stroke-width="0.5" />
</svg>
