<svg width="100%" viewBox="0 0 430 760" xmlns="http://www.w3.org/2000/svg">
  <defs>
    <linearGradient id="moonlitSkyMobile" x1="0" y1="0" x2="0" y2="1">
      <stop offset="0%" stop-color="#08163f" />
      <stop offset="42%" stop-color="#172d5d" />
      <stop offset="76%" stop-color="#2f6d79" />
      <stop offset="100%" stop-color="#52a497" />
    </linearGradient>
    <radialGradient id="moonGlowMobile" cx="50%" cy="50%" r="50%">
      <stop offset="0%" stop-color="#ffffff" stop-opacity="0.96" />
      <stop offset="38%" stop-color="#ebf6da" stop-opacity="0.38" />
      <stop offset="100%" stop-color="#9ee8cb" stop-opacity="0" />
    </radialGradient>
    <radialGradient id="moonFaceMobile" cx="38%" cy="34%" r="62%">
      <stop offset="0%" stop-color="#ffffff" />
      <stop offset="70%" stop-color="#eef7df" />
      <stop offset="100%" stop-color="#c8dfbe" />
    </radialGradient>
  </defs>
  <rect width="430" height="760" fill="url(#moonlitSkyMobile)" />
  <rect x="0" y="280" width="430" height="250" fill="#65bea7" opacity="0.22" />
  <g fill="#ffffff" opacity="0.96">
    <circle cx="54" cy="48" r="1.3" />
    <circle cx="112" cy="74" r="1" />
    <circle cx="188" cy="48" r="1.4" />
    <circle cx="264" cy="70" r="1.1" />
    <circle cx="336" cy="54" r="1.3" />
    <circle cx="382" cy="84" r="1.1" />
    <circle cx="76" cy="148" r="1" />
    <circle cx="154" cy="170" r="1.2" />
    <circle cx="224" cy="136" r="1" />
    <circle cx="298" cy="164" r="1.3" />
    <circle cx="362" cy="144" r="1.1" />
    <g opacity="0.94">
      <rect x="221" y="132" width="1.1" height="8" />
      <rect x="218" y="135" width="7" height="1.1" />
      <rect x="345" y="50" width="1.1" height="8" />
      <rect x="342" y="53" width="7" height="1.1" />
      <rect x="92" y="226" width="1.1" height="8" />
      <rect x="89" y="229" width="7" height="1.1" />
    </g>
  </g>
  <circle cx="120" cy="144" r="108" fill="url(#moonGlowMobile)" />
  <circle cx="120" cy="144" r="48" fill="url(#moonFaceMobile)" />
  <g fill="#c7d8bb" opacity="0.58">
    <circle cx="103" cy="132" r="5" />
    <circle cx="134" cy="151" r="3.5" />
    <circle cx="117" cy="166" r="4.5" />
    <circle cx="143" cy="126" r="2.8" />
  </g>
  <g fill="#7ba8b7" opacity="0.74">
    <ellipse cx="208" cy="120" rx="84" ry="16" />
    <ellipse cx="288" cy="176" rx="94" ry="18" />
    <ellipse cx="188" cy="242" rx="72" ry="14" />
    <ellipse cx="324" cy="290" rx="82" ry="15" />
  </g>
  <g fill="#2f375f" opacity="0.84">
    <ellipse cx="214" cy="110" rx="98" ry="18" />
    <ellipse cx="304" cy="165" rx="88" ry="16" />
    <ellipse cx="178" cy="234" rx="86" ry="16" />
    <ellipse cx="336" cy="284" rx="94" ry="17" />
  </g>
</svg>
