<svg width="40" height="40" viewBox="-20 -20 40 40" xmlns="http://www.w3.org/2000/svg">
  <g>
    <ellipse cx="0" cy="-8" rx="4.5" ry="10" fill="#f5e040" />
    <ellipse cx="0" cy="-8" rx="4.5" ry="10" fill="#f5e040" transform="rotate(30)" />
    <ellipse cx="0" cy="-8" rx="4.5" ry="10" fill="#f5e040" transform="rotate(60)" />
    <ellipse cx="0" cy="-8" rx="4.5" ry="10" fill="#f5e040" transform="rotate(90)" />
    <ellipse cx="0" cy="-8" rx="4.5" ry="10" fill="#f5e040" transform="rotate(120)" />
    <ellipse cx="0" cy="-8" rx="4.5" ry="10" fill="#f5e040" transform="rotate(150)" />
    <ellipse cx="0" cy="-8" rx="4.5" ry="10" fill="#f5e040" transform="rotate(180)" />
    <ellipse cx="0" cy="-8" rx="4.5" ry="10" fill="#f5e040" transform="rotate(210)" />
    <ellipse cx="0" cy="-8" rx="4.5" ry="10" fill="#f5e040" transform="rotate(240)" />
    <ellipse cx="0" cy="-8" rx="4.5" ry="10" fill="#f5e040" transform="rotate(270)" />
    <ellipse cx="0" cy="-8" rx="4.5" ry="10" fill="#f5e040" transform="rotate(300)" />
    <ellipse cx="0" cy="-8" rx="4.5" ry="10" fill="#f5e040" transform="rotate(330)" />
  </g>
  <circle cx="0" cy="0" r="4" fill="#b8841f" />
</svg>
