<svg width="56" height="112" viewBox="0 0 56 112" xmlns="http://www.w3.org/2000/svg">
  <g transform="translate(28 20)">
    <path d="M0 10V92" fill="none" stroke="#6b8b30" stroke-linecap="round" stroke-width="3" />
    <path d="M-2 56C-13 51 -18 54 -22 62" fill="none" stroke="#7fa03a" stroke-linecap="round" stroke-width="2.2" />
    <path d="M2 68C11 64 17 66 22 74" fill="none" stroke="#7fa03a" stroke-linecap="round" stroke-width="2.2" />
    <ellipse cx="0" cy="-8" rx="5.8" ry="12.6" fill="#fffdf7" />
    <ellipse cx="0" cy="-8" rx="5.8" ry="12.6" fill="#fffdf7" transform="rotate(30)" />
    <ellipse cx="0" cy="-8" rx="5.8" ry="12.6" fill="#fffdf7" transform="rotate(60)" />
    <ellipse cx="0" cy="-8" rx="5.8" ry="12.6" fill="#fffdf7" transform="rotate(90)" />
    <ellipse cx="0" cy="-8" rx="5.8" ry="12.6" fill="#fffdf7" transform="rotate(120)" />
    <ellipse cx="0" cy="-8" rx="5.8" ry="12.6" fill="#fffdf7" transform="rotate(150)" />
    <ellipse cx="0" cy="-8" rx="5.8" ry="12.6" fill="#fffdf7" transform="rotate(180)" />
    <ellipse cx="0" cy="-8" rx="5.8" ry="12.6" fill="#fffdf7" transform="rotate(210)" />
    <ellipse cx="0" cy="-8" rx="5.8" ry="12.6" fill="#fffdf7" transform="rotate(240)" />
    <ellipse cx="0" cy="-8" rx="5.8" ry="12.6" fill="#fffdf7" transform="rotate(270)" />
    <ellipse cx="0" cy="-8" rx="5.8" ry="12.6" fill="#fffdf7" transform="rotate(300)" />
    <ellipse cx="0" cy="-8" rx="5.8" ry="12.6" fill="#fffdf7" transform="rotate(330)" />
    <circle cx="0" cy="0" r="6.8" fill="#f2cb46" />
    <circle cx="-2" cy="-1.5" r="1" fill="#c5931f" />
    <circle cx="2.5" cy="1" r="1" fill="#c5931f" />
  </g>
</svg>
