<svg width="40" height="80" viewBox="-20 -30 40 80" xmlns="http://www.w3.org/2000/svg">
  <path d="M 0 50 Q -3 25 0 0" stroke="#558b2f" stroke-width="2" fill="none" stroke-linecap="round" />
  <g>
    <ellipse cx="0" cy="-8" rx="5" ry="12" fill="#d48db5" />
    <ellipse cx="0" cy="-8" rx="5" ry="12" fill="#d48db5" transform="rotate(30)" />
    <ellipse cx="0" cy="-8" rx="5" ry="12" fill="#d48db5" transform="rotate(60)" />
    <ellipse cx="0" cy="-8" rx="5" ry="12" fill="#d48db5" transform="rotate(90)" />
    <ellipse cx="0" cy="-8" rx="5" ry="12" fill="#d48db5" transform="rotate(120)" />
    <ellipse cx="0" cy="-8" rx="5" ry="12" fill="#d48db5" transform="rotate(150)" />
    <ellipse cx="0" cy="-8" rx="5" ry="12" fill="#d48db5" transform="rotate(180)" />
    <ellipse cx="0" cy="-8" rx="5" ry="12" fill="#d48db5" transform="rotate(210)" />
    <ellipse cx="0" cy="-8" rx="5" ry="12" fill="#d48db5" transform="rotate(240)" />
    <ellipse cx="0" cy="-8" rx="5" ry="12" fill="#d48db5" transform="rotate(270)" />
    <ellipse cx="0" cy="-8" rx="5" ry="12" fill="#d48db5" transform="rotate(300)" />
    <ellipse cx="0" cy="-8" rx="5" ry="12" fill="#d48db5" transform="rotate(330)" />
  </g>
  <circle cx="0" cy="0" r="4" fill="#8b3a62" />
</svg>
