<svg width="200" height="260" viewBox="0 0 200 260" xmlns="http://www.w3.org/2000/svg">
  <g transform="translate(100, 130)">
    <line x1="0" y1="0" x2="0" y2="130" stroke="#558b2f" stroke-width="5" stroke-linecap="round"/>
    <path d="M -2 70 Q -35 58 -48 78 Q -26 90 -2 80 Z" fill="#689f38"/>
    <path d="M 2 95 Q 32 83 44 103 Q 24 112 2 104 Z" fill="#689f38"/>
    <ellipse cx="0" cy="-34" rx="9" ry="22" fill="#f9a825" transform="rotate(20)"/>
    <ellipse cx="0" cy="-34" rx="9" ry="22" fill="#f9a825" transform="rotate(60)"/>
    <ellipse cx="0" cy="-34" rx="9" ry="22" fill="#f9a825" transform="rotate(100)"/>
    <ellipse cx="0" cy="-34" rx="9" ry="22" fill="#f9a825" transform="rotate(140)"/>
    <ellipse cx="0" cy="-34" rx="9" ry="22" fill="#f9a825" transform="rotate(180)"/>
    <ellipse cx="0" cy="-34" rx="9" ry="22" fill="#f9a825" transform="rotate(220)"/>
    <ellipse cx="0" cy="-34" rx="9" ry="22" fill="#f9a825" transform="rotate(260)"/>
    <ellipse cx="0" cy="-34" rx="9" ry="22" fill="#f9a825" transform="rotate(300)"/>
    <ellipse cx="0" cy="-34" rx="9" ry="22" fill="#f9a825" transform="rotate(340)"/>
    <ellipse cx="0" cy="-30" rx="8" ry="20" fill="#ffc107"/>
    <ellipse cx="0" cy="-30" rx="8" ry="20" fill="#ffc107" transform="rotate(40)"/>
    <ellipse cx="0" cy="-30" rx="8" ry="20" fill="#ffc107" transform="rotate(80)"/>
    <ellipse cx="0" cy="-30" rx="8" ry="20" fill="#ffc107" transform="rotate(120)"/>
    <ellipse cx="0" cy="-30" rx="8" ry="20" fill="#ffc107" transform="rotate(160)"/>
    <ellipse cx="0" cy="-30" rx="8" ry="20" fill="#ffc107" transform="rotate(200)"/>
    <ellipse cx="0" cy="-30" rx="8" ry="20" fill="#ffc107" transform="rotate(240)"/>
    <ellipse cx="0" cy="-30" rx="8" ry="20" fill="#ffc107" transform="rotate(280)"/>
    <ellipse cx="0" cy="-30" rx="8" ry="20" fill="#ffc107" transform="rotate(320)"/>
    <circle cx="0" cy="0" r="16" fill="#5d4037"/>
    <circle cx="-4" cy="-4" r="1.5" fill="#3e2723"/>
    <circle cx="4" cy="-2" r="1.5" fill="#3e2723"/>
    <circle cx="0" cy="3" r="1.5" fill="#3e2723"/>
    <circle cx="-5" cy="4" r="1.5" fill="#3e2723"/>
    <circle cx="5" cy="5" r="1.5" fill="#3e2723"/>
    <circle cx="-2" cy="-7" r="1.5" fill="#3e2723"/>
    <circle cx="6" cy="1" r="1.5" fill="#3e2723"/>
  </g>
</svg>
