<svg xmlns="http://www.w3.org/2000/svg" xmlns:xlink="http://www.w3.org/1999/xlink" width="1920" zoomAndPan="magnify" viewBox="0 0 1440 809.999993" height="1080" preserveAspectRatio="xMidYMid meet" version="1.0"><defs><clipPath id="0a552fdb85"><path d="M 215.484375 227.121094 L 1219 227.121094 L 1219 547 L 215.484375 547 Z M 215.484375 227.121094 " clip-rule="nonzero"/></clipPath><clipPath id="ad89c4aff0"><path d="M 1140.703125 484.933594 C 328.746094 569.074219 299.296875 552.246094 269.847656 522.796875 C 240.398438 484.933594 223.570312 400.792969 219.363281 354.515625 C 215.15625 320.859375 210.949219 291.410156 227.777344 270.375 C 240.398438 249.339844 278.261719 224.097656 303.503906 228.304688 C 332.953125 232.511719 391.851562 295.617188 391.851562 325.066406 C 396.058594 350.308594 370.816406 383.964844 349.78125 396.585938 C 328.746094 413.414062 286.675781 417.621094 265.640625 405 C 240.398438 388.171875 210.949219 308.238281 223.570312 278.789062 C 231.984375 253.546875 290.882812 219.890625 320.332031 232.511719 C 358.195312 245.132812 349.78125 367.136719 412.886719 400.792969 C 539.097656 468.105469 1073.390625 291.410156 1170.152344 346.101562 C 1208.015625 362.929688 1224.84375 405 1216.429688 426.035156 C 1212.222656 451.277344 1140.703125 484.933594 1140.703125 484.933594 " clip-rule="nonzero"/></clipPath><clipPath id="087907509b"><path d="M 0.484375 0.121094 L 1004 0.121094 L 1004 320 L 0.484375 320 Z M 0.484375 0.121094 " clip-rule="nonzero"/></clipPath><clipPath id="381ab7b890"><path d="M 925.703125 257.933594 C 113.746094 342.074219 84.296875 325.246094 54.847656 295.796875 C 25.398438 257.933594 8.570312 173.792969 4.363281 127.515625 C 0.15625 93.859375 -4.050781 64.410156 12.777344 43.375 C 25.398438 22.339844 63.261719 -2.902344 88.503906 1.304688 C 117.953125 5.511719 176.851562 68.617188 176.851562 98.066406 C 181.058594 123.308594 155.816406 156.964844 134.78125 169.585938 C 113.746094 186.414062 71.675781 190.621094 50.640625 178 C 25.398438 161.171875 -4.050781 81.238281 8.570312 51.789062 C 16.984375 26.546875 75.882812 -7.109375 105.332031 5.511719 C 143.195312 18.132812 134.78125 140.136719 197.886719 173.792969 C 324.097656 241.105469 858.390625 64.410156 955.152344 119.101562 C 993.015625 135.929688 1009.84375 178 1001.429688 199.035156 C 997.222656 224.277344 925.703125 257.933594 925.703125 257.933594 " clip-rule="nonzero"/></clipPath><clipPath id="f0240cc42a"><rect x="0" width="1004" y="0" height="320"/></clipPath></defs><g clip-path="url(#0a552fdb85)"><g clip-path="url(#ad89c4aff0)"><g transform="matrix(1, 0, 0, 1, 215, 227)"><g clip-path="url(#f0240cc42a)"><g clip-path="url(#087907509b)"><g clip-path="url(#381ab7b890)"><rect x="-531.8" width="2073.6" fill="#1e1e1e" height="1166.39999" y="-405.199998" fill-opacity="1"/></g></g></g></g></g></g></svg>