<svg xmlns="http://www.w3.org/2000/svg" xmlns:xlink="http://www.w3.org/1999/xlink" width="1920" zoomAndPan="magnify" viewBox="0 0 1440 809.999993" height="1080" preserveAspectRatio="xMidYMid meet" version="1.0"><defs><clipPath id="e93ec6dd39"><path d="M 239 224 L 1203 224 L 1203 586 L 239 586 Z M 239 224 " clip-rule="nonzero"/></clipPath><clipPath id="aa9cfb9229"><path d="M 300.355469 224.878906 C 1116.648438 240.207031 1128.144531 263.203125 1147.308594 297.695312 C 1174.132812 343.683594 1208.625 447.15625 1200.960938 496.976562 C 1193.296875 531.46875 1170.300781 569.792969 1143.476562 577.457031 C 1116.648438 588.953125 1066.828125 565.960938 1047.667969 546.796875 C 1036.167969 527.636719 1032.335938 489.3125 1040.003906 470.148438 C 1047.667969 447.15625 1078.324219 420.328125 1101.320312 420.328125 C 1128.144531 420.328125 1193.296875 458.652344 1197.128906 489.3125 C 1204.792969 516.136719 1151.140625 573.625 1124.3125 581.289062 C 1108.984375 588.953125 1089.824219 585.121094 1074.492188 569.792969 C 1040.003906 542.964844 1047.667969 405 978.683594 359.011719 C 859.882812 282.363281 392.332031 401.167969 292.691406 355.179688 C 258.199219 336.015625 239.039062 309.191406 239.039062 286.195312 C 239.039062 263.203125 300.355469 224.878906 300.355469 224.878906 " clip-rule="nonzero"/></clipPath><clipPath id="3a9eed9b91"><path d="M 0 0.640625 L 964 0.640625 L 964 362 L 0 362 Z M 0 0.640625 " clip-rule="nonzero"/></clipPath><clipPath id="d7f916c098"><path d="M 61.355469 0.878906 C 877.648438 16.207031 889.144531 39.203125 908.308594 73.695312 C 935.132812 119.683594 969.625 223.15625 961.960938 272.976562 C 954.296875 307.46875 931.300781 345.792969 904.476562 353.457031 C 877.648438 364.953125 827.828125 341.960938 808.667969 322.796875 C 797.167969 303.636719 793.335938 265.3125 801.003906 246.148438 C 808.667969 223.15625 839.324219 196.328125 862.320312 196.328125 C 889.144531 196.328125 954.296875 234.652344 958.128906 265.3125 C 965.792969 292.136719 912.140625 349.625 885.3125 357.289062 C 869.984375 364.953125 850.824219 361.121094 835.492188 345.792969 C 801.003906 318.964844 808.667969 181 739.683594 135.011719 C 620.882812 58.363281 153.332031 177.167969 53.691406 131.179688 C 19.199219 112.015625 0.0390625 85.191406 0.0390625 62.195312 C 0.0390625 39.203125 61.355469 0.878906 61.355469 0.878906 " clip-rule="nonzero"/></clipPath><clipPath id="c058391a10"><rect x="0" width="964" y="0" height="362"/></clipPath></defs><g clip-path="url(#e93ec6dd39)"><g clip-path="url(#aa9cfb9229)"><g transform="matrix(1, 0, 0, 1, 239, 224)"><g clip-path="url(#c058391a10)"><g clip-path="url(#3a9eed9b91)"><g clip-path="url(#d7f916c098)"><rect x="-555.8" width="2073.6" fill="#1e1e1e" height="1166.39999" y="-402.199998" fill-opacity="1"/></g></g></g></g></g></g></svg>