<svg xmlns="http://www.w3.org/2000/svg" xmlns:xlink="http://www.w3.org/1999/xlink" width="1920" zoomAndPan="magnify" viewBox="0 0 1440 809.999993" height="1080" preserveAspectRatio="xMidYMid meet" version="1.0"><defs><clipPath id="36339a60ce"><path d="M 480 160 L 959 160 L 959 623.613281 L 480 623.613281 Z M 480 160 " clip-rule="nonzero"/></clipPath><clipPath id="ab758d832d"><path d="M 534.539062 312.828125 C 550.664062 193.890625 574.855469 183.8125 590.984375 175.746094 C 607.109375 169.699219 623.238281 165.667969 639.363281 167.683594 C 655.492188 171.714844 677.667969 183.8125 687.746094 197.921875 C 699.839844 214.050781 709.921875 248.320312 705.886719 264.445312 C 701.855469 278.558594 685.730469 296.699219 673.632812 296.699219 C 659.523438 298.71875 627.269531 274.527344 625.253906 260.414062 C 621.222656 244.289062 637.347656 218.082031 657.507812 201.953125 C 691.777344 177.761719 792.570312 155.589844 832.890625 161.636719 C 853.050781 163.652344 869.175781 173.730469 879.253906 187.84375 C 893.367188 205.984375 907.476562 248.320312 901.429688 272.511719 C 895.382812 298.71875 865.144531 335.003906 844.984375 341.050781 C 828.859375 347.097656 802.652344 339.035156 794.589844 326.9375 C 786.523438 314.84375 786.523438 280.574219 798.621094 268.476562 C 810.714844 256.382812 853.050781 252.351562 877.238281 260.414062 C 905.460938 272.511719 941.75 308.796875 951.828125 341.050781 C 963.921875 373.304688 957.875 421.6875 943.765625 453.941406 C 931.667969 482.164062 905.460938 512.402344 881.273438 524.496094 C 855.066406 534.578125 816.761719 534.578125 794.589844 524.496094 C 778.460938 516.433594 762.332031 498.289062 758.300781 484.179688 C 754.269531 470.066406 756.285156 449.910156 766.367188 441.84375 C 778.460938 431.765625 820.792969 427.734375 834.90625 439.828125 C 853.050781 453.941406 857.082031 510.386719 853.050781 538.609375 C 849.015625 560.785156 838.9375 580.941406 822.8125 595.054688 C 802.652344 611.179688 758.300781 621.261719 730.078125 623.277344 C 705.886719 623.277344 679.683594 621.261719 659.523438 611.179688 C 643.394531 601.101562 629.285156 584.972656 621.222656 566.832031 C 609.125 542.640625 595.015625 480.148438 603.078125 474.101562 C 611.140625 468.050781 651.460938 490.226562 651.460938 494.257812 C 649.445312 500.304688 580.902344 502.324219 554.695312 494.257812 C 534.539062 488.210938 514.378906 480.148438 504.300781 462.003906 C 488.171875 437.8125 472.042969 383.382812 486.15625 353.144531 C 498.25 316.859375 566.792969 268.476562 595.015625 268.476562 C 613.15625 268.476562 635.332031 290.652344 637.347656 304.765625 C 641.378906 318.875 627.269531 347.097656 615.171875 355.160156 C 603.078125 363.226562 582.917969 361.210938 570.824219 355.160156 C 560.742188 349.113281 548.648438 332.988281 546.632812 318.875 C 546.632812 306.78125 552.679688 286.621094 562.761719 280.574219 C 574.855469 270.496094 607.109375 268.476562 619.203125 276.542969 C 631.300781 284.605469 639.363281 310.8125 637.347656 328.957031 C 631.300781 353.144531 566.792969 389.433594 572.839844 403.542969 C 578.886719 415.640625 637.347656 391.449219 661.539062 407.574219 C 691.777344 425.71875 703.871094 524.496094 726.046875 530.546875 C 740.160156 534.578125 760.316406 516.433594 768.382812 502.324219 C 778.460938 486.195312 764.351562 445.878906 774.429688 433.78125 C 782.492188 425.71875 806.683594 423.703125 816.761719 427.734375 C 824.828125 429.75 828.859375 447.894531 834.90625 447.894531 C 842.96875 447.894531 857.082031 427.734375 863.128906 415.640625 C 869.175781 403.542969 875.222656 387.417969 869.175781 373.304688 C 859.097656 351.128906 790.554688 332.988281 784.507812 308.796875 C 780.476562 288.636719 822.8125 254.367188 816.761719 244.289062 C 806.683594 232.191406 732.09375 242.273438 705.886719 254.367188 C 685.730469 264.445312 677.667969 296.699219 663.554688 298.71875 C 651.460938 298.71875 635.332031 288.636719 631.300781 278.558594 C 625.253906 270.496094 637.347656 248.320312 633.316406 244.289062 C 627.269531 240.257812 597.03125 250.335938 588.964844 262.429688 C 580.902344 276.542969 599.046875 320.890625 588.964844 328.957031 C 578.886719 337.019531 534.539062 312.828125 534.539062 312.828125 " clip-rule="nonzero"/></clipPath><clipPath id="b9ece17af1"><path d="M 0 0 L 479 0 L 479 463.28125 L 0 463.28125 Z M 0 0 " clip-rule="nonzero"/></clipPath><clipPath id="36b27333b8"><path d="M 54.539062 152.828125 C 70.664062 33.890625 94.855469 23.8125 110.984375 15.746094 C 127.109375 9.699219 143.238281 5.667969 159.363281 7.683594 C 175.492188 11.714844 197.667969 23.8125 207.746094 37.921875 C 219.839844 54.050781 229.921875 88.320312 225.886719 104.445312 C 221.855469 118.558594 205.730469 136.699219 193.632812 136.699219 C 179.523438 138.71875 147.269531 114.527344 145.253906 100.414062 C 141.222656 84.289062 157.347656 58.082031 177.507812 41.953125 C 211.777344 17.761719 312.570312 -4.410156 352.890625 1.636719 C 373.050781 3.652344 389.175781 13.730469 399.253906 27.84375 C 413.367188 45.984375 427.476562 88.320312 421.429688 112.511719 C 415.382812 138.71875 385.144531 175.003906 364.984375 181.050781 C 348.859375 187.097656 322.652344 179.035156 314.589844 166.9375 C 306.523438 154.84375 306.523438 120.574219 318.621094 108.476562 C 330.714844 96.382812 373.050781 92.351562 397.238281 100.414062 C 425.460938 112.511719 461.75 148.796875 471.828125 181.050781 C 483.921875 213.304688 477.875 261.6875 463.765625 293.941406 C 451.667969 322.164062 425.460938 352.402344 401.273438 364.496094 C 375.066406 374.578125 336.761719 374.578125 314.589844 364.496094 C 298.460938 356.433594 282.332031 338.289062 278.300781 324.179688 C 274.269531 310.066406 276.285156 289.910156 286.367188 281.84375 C 298.460938 271.765625 340.792969 267.734375 354.90625 279.828125 C 373.050781 293.941406 377.082031 350.386719 373.050781 378.609375 C 369.015625 400.785156 358.9375 420.941406 342.8125 435.054688 C 322.652344 451.179688 278.300781 461.261719 250.078125 463.277344 C 225.886719 463.277344 199.683594 461.261719 179.523438 451.179688 C 163.394531 441.101562 149.285156 424.972656 141.222656 406.832031 C 129.125 382.640625 115.015625 320.148438 123.078125 314.101562 C 131.140625 308.050781 171.460938 330.226562 171.460938 334.257812 C 169.445312 340.304688 100.902344 342.324219 74.695312 334.257812 C 54.539062 328.210938 34.378906 320.148438 24.300781 302.003906 C 8.171875 277.8125 -7.957031 223.382812 6.15625 193.144531 C 18.25 156.859375 86.792969 108.476562 115.015625 108.476562 C 133.15625 108.476562 155.332031 130.652344 157.347656 144.765625 C 161.378906 158.875 147.269531 187.097656 135.171875 195.160156 C 123.078125 203.226562 102.917969 201.210938 90.824219 195.160156 C 80.742188 189.113281 68.648438 172.988281 66.632812 158.875 C 66.632812 146.78125 72.679688 126.621094 82.761719 120.574219 C 94.855469 110.496094 127.109375 108.476562 139.203125 116.542969 C 151.300781 124.605469 159.363281 150.8125 157.347656 168.957031 C 151.300781 193.144531 86.792969 229.433594 92.839844 243.542969 C 98.886719 255.640625 157.347656 231.449219 181.539062 247.574219 C 211.777344 265.71875 223.871094 364.496094 246.046875 370.546875 C 260.160156 374.578125 280.316406 356.433594 288.382812 342.324219 C 298.460938 326.195312 284.351562 285.878906 294.429688 273.78125 C 302.492188 265.71875 326.683594 263.703125 336.761719 267.734375 C 344.828125 269.75 348.859375 287.894531 354.90625 287.894531 C 362.96875 287.894531 377.082031 267.734375 383.128906 255.640625 C 389.175781 243.542969 395.222656 227.417969 389.175781 213.304688 C 379.097656 191.128906 310.554688 172.988281 304.507812 148.796875 C 300.476562 128.636719 342.8125 94.367188 336.761719 84.289062 C 326.683594 72.191406 252.09375 82.273438 225.886719 94.367188 C 205.730469 104.445312 197.667969 136.699219 183.554688 138.71875 C 171.460938 138.71875 155.332031 128.636719 151.300781 118.558594 C 145.253906 110.496094 157.347656 88.320312 153.316406 84.289062 C 147.269531 80.257812 117.03125 90.335938 108.964844 102.429688 C 100.902344 116.542969 119.046875 160.890625 108.964844 168.957031 C 98.886719 177.019531 54.539062 152.828125 54.539062 152.828125 " clip-rule="nonzero"/></clipPath><clipPath id="2ca77ac7f5"><rect x="0" width="479" y="0" height="464"/></clipPath></defs><g clip-path="url(#36339a60ce)"><g clip-path="url(#ab758d832d)"><g transform="matrix(1, 0, 0, 1, 480, 160)"><g clip-path="url(#2ca77ac7f5)"><g clip-path="url(#b9ece17af1)"><g clip-path="url(#36b27333b8)"><rect x="-796.8" width="2073.6" fill="#1e1e1e" height="1166.39999" y="-338.199998" fill-opacity="1"/></g></g></g></g></g></g></svg>