<svg width="100%" viewBox="0 0 680 440" xmlns="http://www.w3.org/2000/svg">
  <defs>
    <linearGradient id="sky5" x1="0" y1="0" x2="0" y2="1">
      <stop offset="0%" stop-color="#a8d4ec"/>
      <stop offset="60%" stop-color="#c8e4f0"/>
      <stop offset="100%" stop-color="#e8f0f5"/>
    </linearGradient>
  </defs>
  <rect x="0" y="0" width="680" height="440" fill="url(#sky5)"/>
  <g fill="#ffffff" opacity="0.35">
    <ellipse cx="500" cy="80" rx="80" ry="8"/>
    <ellipse cx="550" cy="120" rx="60" ry="6"/>
    <ellipse cx="620" cy="60" rx="50" ry="5"/>
  </g>
  <g transform="translate(0 79)">
    <g transform="scale(0.82)">
  <path d="M 25 440 Q 30 400 40 360 Q 55 310 70 260 Q 82 220 90 190 L 112 188 Q 108 220 102 260 Q 95 310 85 360 Q 75 400 70 440 Z" fill="#5d3a1a"/>
  <path d="M 28 440 Q 33 400 42 360 Q 57 310 72 260 Q 82 225 90 192 L 98 192 Q 94 225 88 260 Q 80 310 72 360 Q 63 400 58 440 Z" fill="#3e2510"/>
  <path d="M 105 192 Q 101 225 95 260 Q 88 310 80 360 Q 72 400 68 440 L 72 440 Q 78 400 86 360 Q 96 310 102 260 Q 108 220 112 190 Z" fill="#7a5028"/>
  <path d="M 20 440 Q 10 430 5 438 L 40 440 Z" fill="#3e2510"/>
  <path d="M 70 440 Q 85 428 90 438 L 70 442 Z" fill="#5d3a1a"/>
  <path d="M 50 340 Q 52 380 55 420" stroke="#3e2510" stroke-width="1.5" fill="none"/>
  <path d="M 75 280 Q 77 320 80 360" stroke="#3e2510" stroke-width="1.5" fill="none"/>
  <path d="M 95 190 Q 75 160 55 125 Q 45 90 40 55" stroke="#5d3a1a" stroke-width="11" fill="none" stroke-linecap="round"/>
  <path d="M 55 125 Q 50 100 42 75" stroke="#5d3a1a" stroke-width="7" fill="none" stroke-linecap="round"/>
  <path d="M 42 75 Q 38 50 35 25" stroke="#5d3a1a" stroke-width="5" fill="none" stroke-linecap="round"/>
  <path d="M 55 125 Q 80 105 110 90" stroke="#5d3a1a" stroke-width="7" fill="none" stroke-linecap="round"/>
  <path d="M 110 90 Q 135 80 155 75" stroke="#5d3a1a" stroke-width="5" fill="none" stroke-linecap="round"/>
  <path d="M 100 190 Q 115 155 135 125 Q 160 90 195 65" stroke="#5d3a1a" stroke-width="10" fill="none" stroke-linecap="round"/>
  <path d="M 135 125 Q 155 105 180 95" stroke="#5d3a1a" stroke-width="6" fill="none" stroke-linecap="round"/>
  <path d="M 180 95 Q 200 85 220 80" stroke="#5d3a1a" stroke-width="4" fill="none" stroke-linecap="round"/>
  <path d="M 195 65 Q 215 50 235 45" stroke="#5d3a1a" stroke-width="4" fill="none" stroke-linecap="round"/>
  <g fill="#c44a7a">
    <circle cx="45" cy="80" r="35"/><circle cx="90" cy="75" r="38"/><circle cx="140" cy="80" r="40"/><circle cx="195" cy="80" r="38"/><circle cx="250" cy="90" r="35"/>
    <circle cx="60" cy="140" r="38"/><circle cx="115" cy="130" r="42"/><circle cx="170" cy="130" r="40"/><circle cx="225" cy="135" r="38"/><circle cx="280" cy="145" r="35"/><circle cx="330" cy="155" r="32"/>
    <circle cx="100" cy="195" r="35"/><circle cx="155" cy="195" r="35"/><circle cx="210" cy="195" r="33"/><circle cx="265" cy="195" r="30"/><circle cx="320" cy="190" r="28"/><circle cx="370" cy="185" r="25"/>
    <circle cx="180" cy="250" r="28"/><circle cx="240" cy="255" r="25"/><circle cx="295" cy="255" r="22"/>
  </g>
  <g fill="#d85a8a">
    <circle cx="30" cy="60" r="30"/><circle cx="70" cy="55" r="35"/><circle cx="120" cy="55" r="38"/><circle cx="175" cy="55" r="38"/><circle cx="230" cy="65" r="35"/>
    <circle cx="45" cy="115" r="32"/><circle cx="100" cy="105" r="38"/><circle cx="155" cy="105" r="38"/><circle cx="210" cy="110" r="35"/><circle cx="265" cy="120" r="32"/><circle cx="315" cy="130" r="28"/>
    <circle cx="80" cy="170" r="35"/><circle cx="135" cy="165" r="38"/><circle cx="190" cy="165" r="35"/><circle cx="245" cy="170" r="32"/><circle cx="300" cy="170" r="28"/><circle cx="350" cy="170" r="25"/>
    <circle cx="125" cy="220" r="30"/><circle cx="180" cy="220" r="30"/><circle cx="235" cy="225" r="28"/><circle cx="290" cy="225" r="25"/><circle cx="340" cy="220" r="22"/>
    <circle cx="210" cy="275" r="22"/><circle cx="265" cy="280" r="20"/><circle cx="320" cy="275" r="18"/>
  </g>
  <g fill="#e884b0">
    <circle cx="25" cy="40" r="25"/><circle cx="55" cy="30" r="30"/><circle cx="100" cy="30" r="32"/><circle cx="150" cy="28" r="32"/><circle cx="200" cy="35" r="30"/><circle cx="250" cy="45" r="28"/>
    <circle cx="35" cy="90" r="25"/><circle cx="80" cy="80" r="30"/><circle cx="130" cy="80" r="32"/><circle cx="185" cy="80" r="30"/><circle cx="240" cy="90" r="28"/><circle cx="290" cy="100" r="25"/>
    <circle cx="65" cy="145" r="28"/><circle cx="115" cy="135" r="32"/><circle cx="170" cy="135" r="30"/><circle cx="225" cy="140" r="28"/><circle cx="280" cy="145" r="25"/><circle cx="330" cy="150" r="22"/>
    <circle cx="105" cy="195" r="28"/><circle cx="160" cy="195" r="28"/><circle cx="215" cy="200" r="26"/><circle cx="270" cy="200" r="23"/><circle cx="320" cy="195" r="20"/>
    <circle cx="155" cy="245" r="22"/><circle cx="210" cy="245" r="22"/><circle cx="265" cy="250" r="20"/><circle cx="310" cy="250" r="18"/>
  </g>
  <g fill="#f4a8c4">
    <circle cx="40" cy="20" r="20"/><circle cx="80" cy="10" r="22"/><circle cx="125" cy="10" r="25"/><circle cx="175" cy="10" r="25"/><circle cx="225" cy="20" r="22"/><circle cx="275" cy="30" r="20"/>
    <circle cx="55" cy="65" r="20"/><circle cx="105" cy="60" r="22"/><circle cx="160" cy="60" r="22"/><circle cx="215" cy="65" r="20"/><circle cx="265" cy="75" r="18"/><circle cx="315" cy="85" r="16"/>
    <circle cx="85" cy="115" r="20"/><circle cx="140" cy="110" r="22"/><circle cx="195" cy="115" r="20"/><circle cx="250" cy="120" r="18"/><circle cx="300" cy="130" r="16"/>
    <circle cx="130" cy="170" r="20"/><circle cx="185" cy="170" r="20"/><circle cx="240" cy="175" r="18"/><circle cx="295" cy="175" r="16"/>
    <circle cx="175" cy="225" r="16"/><circle cx="230" cy="230" r="16"/><circle cx="285" cy="230" r="14"/>
  </g>
  <g fill="#fcd8e4">
    <circle cx="60" cy="5" r="18"/><circle cx="105" cy="0" r="20"/><circle cx="155" cy="0" r="22"/><circle cx="205" cy="5" r="20"/><circle cx="255" cy="15" r="18"/>
    <circle cx="75" cy="40" r="15"/><circle cx="120" cy="35" r="16"/><circle cx="170" cy="32" r="18"/><circle cx="220" cy="40" r="15"/>
    <circle cx="115" cy="85" r="14"/><circle cx="165" cy="80" r="15"/><circle cx="215" cy="85" r="14"/>
  </g>
    </g>
  </g>
  <g fill="#f4a8c4" opacity="0.9">
    <ellipse cx="380" cy="50" rx="4" ry="2.5" transform="rotate(30 380 50)"/><ellipse cx="420" cy="80" rx="4" ry="2.5" transform="rotate(-20 420 80)"/>
    <ellipse cx="460" cy="60" rx="4" ry="2.5" transform="rotate(45 460 60)"/><ellipse cx="500" cy="95" rx="4" ry="2.5" transform="rotate(-30 500 95)"/>
    <ellipse cx="540" cy="75" rx="4" ry="2.5" transform="rotate(60 540 75)"/><ellipse cx="580" cy="115" rx="4" ry="2.5" transform="rotate(-15 580 115)"/>
    <ellipse cx="620" cy="135" rx="4" ry="2.5" transform="rotate(40 620 135)"/>
    <ellipse cx="410" cy="140" rx="3.5" ry="2" transform="rotate(-45 410 140)"/><ellipse cx="460" cy="160" rx="3.5" ry="2" transform="rotate(25 460 160)"/>
    <ellipse cx="520" cy="180" rx="3.5" ry="2" transform="rotate(-30 520 180)"/><ellipse cx="570" cy="200" rx="3.5" ry="2" transform="rotate(50 570 200)"/>
    <ellipse cx="620" cy="220" rx="3.5" ry="2" transform="rotate(-20 620 220)"/>
    <ellipse cx="440" cy="220" rx="3" ry="1.8" transform="rotate(35 440 220)"/><ellipse cx="490" cy="240" rx="3" ry="1.8" transform="rotate(-40 490 240)"/>
    <ellipse cx="550" cy="260" rx="3" ry="1.8" transform="rotate(15 550 260)"/><ellipse cx="610" cy="280" rx="3" ry="1.8" transform="rotate(-25 610 280)"/>
    <ellipse cx="460" cy="300" rx="3" ry="2" transform="rotate(55 460 300)"/><ellipse cx="520" cy="320" rx="3" ry="2" transform="rotate(-35 520 320)"/>
    <ellipse cx="580" cy="340" rx="3" ry="2" transform="rotate(20 580 340)"/>
  </g>
  <g fill="#e884b0" opacity="0.8">
    <ellipse cx="40" cy="425" rx="4" ry="2.5" transform="rotate(20 40 425)"/><ellipse cx="80" cy="430" rx="4" ry="2.5" transform="rotate(-30 80 430)"/>
    <ellipse cx="120" cy="425" rx="4" ry="2.5" transform="rotate(40 120 425)"/><ellipse cx="160" cy="430" rx="4" ry="2.5" transform="rotate(-15 160 430)"/>
    <ellipse cx="200" cy="425" rx="4" ry="2.5" transform="rotate(25 200 425)"/><ellipse cx="240" cy="432" rx="4" ry="2.5" transform="rotate(-35 240 432)"/>
  </g>
  <g fill="#ffffff" opacity="0.9">
    <ellipse cx="340" cy="400" rx="80" ry="15"/><ellipse cx="310" cy="390" rx="45" ry="20"/><ellipse cx="370" cy="385" rx="50" ry="22"/><ellipse cx="400" cy="395" rx="40" ry="18"/>
    <ellipse cx="520" cy="420" rx="70" ry="12"/><ellipse cx="490" cy="412" rx="40" ry="15"/><ellipse cx="540" cy="408" rx="45" ry="18"/>
    <ellipse cx="620" cy="400" rx="60" ry="12"/><ellipse cx="600" cy="392" rx="35" ry="15"/><ellipse cx="645" cy="388" rx="35" ry="16"/>
  </g>
</svg>
