<svg width="100%" viewBox="0 0 680 300" xmlns="http://www.w3.org/2000/svg">
  <path d="M 105 280 Q 110 220 120 180 Q 130 150 145 130 L 180 125 Q 175 155 168 190 Q 165 230 165 280 Z" fill="#5d3a1a" />
  <path d="M 108 280 Q 112 230 120 185 Q 128 160 140 142 Q 135 180 132 220 Q 130 250 130 280 Z" fill="#3e2510" />
  <path d="M 155 280 Q 158 230 162 180 Q 168 150 175 130 Q 172 160 170 200 Q 168 240 167 280 Z" fill="#7a5028" />
  <line x1="125" y1="200" x2="128" y2="260" stroke="#3e2510" stroke-width="1.5" />
  <line x1="145" y1="180" x2="148" y2="240" stroke="#3e2510" stroke-width="1.5" />
  <path d="M 145 130 Q 200 100 280 95 Q 380 90 480 100" stroke="#5d3a1a" stroke-width="8" fill="none" stroke-linecap="round" />
  <path d="M 155 110 Q 230 85 340 75 Q 440 72 540 80" stroke="#5d3a1a" stroke-width="6" fill="none" stroke-linecap="round" />
  <path d="M 170 90 Q 260 60 380 55 Q 490 55 600 65" stroke="#5d3a1a" stroke-width="5" fill="none" stroke-linecap="round" />
  <ellipse cx="150" cy="95" rx="110" ry="55" fill="#3d6b1f" />
  <ellipse cx="260" cy="75" rx="100" ry="50" fill="#3d6b1f" />
  <ellipse cx="380" cy="70" rx="95" ry="48" fill="#4a7a26" />
  <ellipse cx="490" cy="80" rx="90" ry="45" fill="#4a7a26" />
  <ellipse cx="580" cy="95" rx="80" ry="40" fill="#4a7a26" />
  <circle cx="160" cy="70" r="40" fill="#5a9030" />
  <circle cx="210" cy="55" r="35" fill="#5a9030" />
  <circle cx="280" cy="50" r="40" fill="#5a9030" />
  <circle cx="350" cy="45" r="38" fill="#6ba83a" />
  <circle cx="420" cy="55" r="38" fill="#6ba83a" />
  <circle cx="490" cy="60" r="38" fill="#6ba83a" />
  <circle cx="560" cy="70" r="35" fill="#6ba83a" />
  <circle cx="620" cy="80" r="32" fill="#6ba83a" />
  <circle cx="190" cy="45" r="22" fill="#9bc441" />
  <circle cx="250" cy="35" r="25" fill="#b8d94a" />
  <circle cx="310" cy="30" r="22" fill="#d4e758" />
  <circle cx="370" cy="32" r="25" fill="#e8ed5e" />
  <circle cx="430" cy="38" r="22" fill="#d4e758" />
  <circle cx="490" cy="42" r="22" fill="#b8d94a" />
  <circle cx="550" cy="52" r="20" fill="#9bc441" />
  <circle cx="600" cy="65" r="18" fill="#9bc441" />
  <circle cx="140" cy="125" r="18" fill="#3d6b1f" />
  <circle cx="115" cy="105" r="22" fill="#4a7a26" />
  <circle cx="95" cy="80" r="18" fill="#5a9030" />
  <circle cx="250" cy="110" r="15" fill="#5a9030" />
  <circle cx="400" cy="105" r="18" fill="#5a9030" />
  <circle cx="550" cy="115" r="15" fill="#5a9030" />
  <circle cx="640" cy="95" r="15" fill="#6ba83a" />
  <g fill="#e8ed5e" opacity="0.85">
    <ellipse cx="300" cy="140" rx="3" ry="5" transform="rotate(30 300 140)" />
    <ellipse cx="340" cy="170" rx="3" ry="5" transform="rotate(-20 340 170)" />
    <ellipse cx="420" cy="155" rx="3" ry="5" transform="rotate(45 420 155)" />
    <ellipse cx="500" cy="140" rx="3" ry="5" transform="rotate(-30 500 140)" />
    <ellipse cx="460" cy="195" rx="3" ry="5" transform="rotate(60 460 195)" />
    <ellipse cx="380" cy="210" rx="3" ry="5" transform="rotate(-45 380 210)" />
    <ellipse cx="550" cy="230" rx="3" ry="5" transform="rotate(25 550 230)" />
    <ellipse cx="260" cy="225" rx="3" ry="5" transform="rotate(-60 260 225)" />
    <ellipse cx="320" cy="260" rx="3" ry="5" transform="rotate(40 320 260)" />
    <ellipse cx="500" cy="270" rx="3" ry="5" transform="rotate(-25 500 270)" />
  </g>
</svg>
