<svg width="680" height="54" viewBox="0 0 680 54" fill="none" xmlns="http://www.w3.org/2000/svg">
  <rect x="0" y="12" width="680" height="42" fill="#8BC34A"/>
  <path d="M40 12L45 0L50 12Z" fill="#689F38"/>
  <path d="M78 12L83 1L88 12Z" fill="#689F38"/>
  <path d="M120 12L124 2L128 12Z" fill="#689F38"/>
  <path d="M198 12L203 0L208 12Z" fill="#689F38"/>
  <path d="M252 12L257 2L262 12Z" fill="#689F38"/>
  <path d="M336 12L341 0L346 12Z" fill="#689F38"/>
  <path d="M420 12L425 1L430 12Z" fill="#689F38"/>
  <path d="M500 12L505 0L510 12Z" fill="#689F38"/>
  <path d="M564 12L569 2L574 12Z" fill="#689F38"/>
  <path d="M620 12L625 0L630 12Z" fill="#689F38"/>
  <path d="M650 12L655 1L660 12Z" fill="#689F38"/>
</svg>
