<svg width="100%" viewBox="0 0 88 72" xmlns="http://www.w3.org/2000/svg">
  <g fill="none" stroke-linecap="round" stroke-linejoin="round">
    <ellipse cx="42" cy="46" rx="23" ry="14" fill="#fffaf4" stroke="#d9c8ba" stroke-width="2.2"/>
    <ellipse cx="22" cy="33" rx="11.5" ry="11" fill="#fffaf4" stroke="#d9c8ba" stroke-width="2.2"/>
    <ellipse cx="18.5" cy="18" rx="4.1" ry="12" fill="#fffaf4" stroke="#d9c8ba" stroke-width="2" transform="rotate(-10 18.5 18)"/>
    <ellipse cx="28" cy="18" rx="4.1" ry="12" fill="#fffaf4" stroke="#d9c8ba" stroke-width="2" transform="rotate(10 28 18)"/>
    <ellipse cx="18.5" cy="18.5" rx="1.7" ry="8.5" fill="#f3bfd0" opacity="0.9" transform="rotate(-10 18.5 18.5)"/>
    <ellipse cx="28" cy="18.5" rx="1.7" ry="8.5" fill="#f3bfd0" opacity="0.9" transform="rotate(10 28 18.5)"/>
    <circle cx="18.5" cy="32.5" r="1.5" fill="#3b342f" stroke="none"/>
    <circle cx="14" cy="36" r="1.6" fill="#efb5c4" stroke="none"/>
    <path d="M16.2 36.8Q18.6 39.2 21 37.6" stroke="#7c6559" stroke-width="1.45"/>
    <ellipse cx="31" cy="58" rx="3.2" ry="2" fill="#fffaf4" stroke="#d9c8ba" stroke-width="1.4"/>
    <ellipse cx="39.5" cy="58" rx="3.2" ry="2" fill="#fffaf4" stroke="#d9c8ba" stroke-width="1.4"/>
    <circle cx="63" cy="41" r="4.1" fill="#fffaf4" stroke="#d9c8ba" stroke-width="1.6"/>
  </g>
</svg>
