<svg width="100%" viewBox="0 0 120 110" xmlns="http://www.w3.org/2000/svg">
  <g fill="none" stroke-linecap="round" stroke-linejoin="round">
    <ellipse cx="60" cy="76" rx="24" ry="22" fill="#fffaf4" stroke="#d9c8ba" stroke-width="2.4"/>
    <ellipse cx="62" cy="52" rx="16" ry="17" fill="#fffaf4" stroke="#d9c8ba" stroke-width="2.4"/>
    <ellipse cx="54" cy="24" rx="5.5" ry="20" fill="#fffaf4" stroke="#d9c8ba" stroke-width="2.2" transform="rotate(-8 54 24)"/>
    <ellipse cx="70" cy="22" rx="5.5" ry="21" fill="#fffaf4" stroke="#d9c8ba" stroke-width="2.2" transform="rotate(7 70 22)"/>
    <ellipse cx="54" cy="24" rx="2.1" ry="12" fill="#f3bfd0" opacity="0.9" transform="rotate(-8 54 24)"/>
    <ellipse cx="70" cy="22" rx="2.1" ry="13" fill="#f3bfd0" opacity="0.9" transform="rotate(7 70 22)"/>
    <ellipse cx="61.5" cy="60" rx="8.5" ry="6.5" fill="#f8e8e1"/>
    <circle cx="57" cy="50" r="1.8" fill="#3b342f" stroke="none"/>
    <circle cx="67.5" cy="50" r="1.8" fill="#3b342f" stroke="none"/>
    <circle cx="62" cy="55.5" r="2.1" fill="#efb5c4" stroke="none"/>
    <path d="M59.8 57.7Q62 60.2 64.2 57.7" stroke="#7c6559" stroke-width="1.6"/>
    <ellipse cx="45" cy="95" rx="7.5" ry="4.5" fill="#fffaf4" stroke="#d9c8ba" stroke-width="1.8"/>
    <ellipse cx="76" cy="95" rx="7.5" ry="4.5" fill="#fffaf4" stroke="#d9c8ba" stroke-width="1.8"/>
    <circle cx="82" cy="71" r="4.2" fill="#fffaf4" stroke="#d9c8ba" stroke-width="1.8"/>
  </g>
</svg>
