<svg width="80" height="70" viewBox="0 0 80 70" xmlns="http://www.w3.org/2000/svg">
  <ellipse cx="40" cy="45" rx="22" ry="14" fill="#f4e8d8"/>
  <ellipse cx="55" cy="42" rx="12" ry="15" fill="#f8eee0"/>
  <ellipse cx="28" cy="48" rx="8" ry="6" fill="#faf0e4" opacity="0.6"/>
  <circle cx="22" cy="32" r="11" fill="#f4e8d8"/>
  <circle cx="20" cy="30" r="7" fill="#f8eee0"/>
  <ellipse cx="18" cy="18" rx="4" ry="12" fill="#f4e8d8" transform="rotate(-10 18 18)"/>
  <ellipse cx="18" cy="19" rx="2" ry="9" fill="#f4b8c4" transform="rotate(-10 18 19)" opacity="0.7"/>
  <ellipse cx="27" cy="18" rx="4" ry="12" fill="#f4e8d8" transform="rotate(10 27 18)"/>
  <ellipse cx="27" cy="19" rx="2" ry="9" fill="#f4b8c4" transform="rotate(10 27 19)" opacity="0.7"/>
  <circle cx="18" cy="32" r="1.5" fill="#2a2a2a"/>
  <ellipse cx="13" cy="36" rx="1.2" ry="0.8" fill="#c48888"/>
  <circle cx="62" cy="40" r="4" fill="#ffffff"/>
  <ellipse cx="30" cy="58" rx="3" ry="2" fill="#e8d4bc"/>
  <ellipse cx="38" cy="58" rx="3" ry="2" fill="#e8d4bc"/>
</svg>
