<svg width="220" height="172" viewBox="0 0 220 172" xmlns="http://www.w3.org/2000/svg">
  <ellipse cx="110" cy="154" rx="44" ry="6" fill="#000000" opacity="0.12"/>

  <line x1="86" y1="116" x2="86" y2="144" stroke="#6b4423" stroke-width="7" stroke-linecap="round"/>
  <line x1="102" y1="118" x2="102" y2="148" stroke="#6b4423" stroke-width="7" stroke-linecap="round"/>
  <line x1="122" y1="118" x2="122" y2="144" stroke="#6b4423" stroke-width="7" stroke-linecap="round"/>
  <line x1="138" y1="116" x2="138" y2="148" stroke="#6b4423" stroke-width="7" stroke-linecap="round"/>

  <ellipse cx="86" cy="147" rx="5" ry="3" fill="#3a2614"/>
  <ellipse cx="102" cy="151" rx="5" ry="3" fill="#3a2614"/>
  <ellipse cx="122" cy="147" rx="5" ry="3" fill="#3a2614"/>
  <ellipse cx="138" cy="151" rx="5" ry="3" fill="#3a2614"/>

  <circle cx="110" cy="92" r="44" fill="#ffffff"/>
  <circle cx="70" cy="78" r="14" fill="#ffffff"/>
  <circle cx="80" cy="58" r="15" fill="#ffffff"/>
  <circle cx="98" cy="44" r="16" fill="#ffffff"/>
  <circle cx="122" cy="40" r="17" fill="#ffffff"/>
  <circle cx="144" cy="48" r="16" fill="#ffffff"/>
  <circle cx="156" cy="66" r="15" fill="#ffffff"/>
  <circle cx="158" cy="90" r="14" fill="#ffffff"/>
  <circle cx="150" cy="110" r="14" fill="#ffffff"/>
  <circle cx="128" cy="126" r="14" fill="#ffffff"/>
  <circle cx="102" cy="128" r="14" fill="#ffffff"/>
  <circle cx="78" cy="118" r="13" fill="#ffffff"/>
  <circle cx="64" cy="98" r="13" fill="#ffffff"/>

  <ellipse cx="110" cy="86" rx="22" ry="26" fill="#f4e4c1"/>
  <ellipse cx="86" cy="82" rx="10" ry="7" fill="#e8d3a8" transform="rotate(-18 86 82)"/>
  <ellipse cx="134" cy="82" rx="10" ry="7" fill="#e8d3a8" transform="rotate(18 134 82)"/>
  <ellipse cx="87" cy="83" rx="6" ry="4" fill="#d4a574" transform="rotate(-18 87 83)"/>
  <ellipse cx="133" cy="83" rx="6" ry="4" fill="#d4a574" transform="rotate(18 133 83)"/>

  <path d="M98 84Q102 88 106 84" stroke="#2a2a2a" stroke-width="2" fill="none" stroke-linecap="round"/>
  <path d="M114 84Q118 88 122 84" stroke="#2a2a2a" stroke-width="2" fill="none" stroke-linecap="round"/>

  <ellipse cx="110" cy="100" rx="11" ry="7" fill="#ffffff"/>
  <ellipse cx="107" cy="98" rx="1" ry="0.8" fill="#2a2a2a"/>
  <ellipse cx="113" cy="98" rx="1" ry="0.8" fill="#2a2a2a"/>
  <path d="M102 103Q110 111 118 103Q118 108 110 109Q102 108 102 103Z" fill="#2a2a2a"/>
  <ellipse cx="110" cy="108" rx="3" ry="1.8" fill="#ff8fa3"/>

  <ellipse cx="94" cy="96" rx="3.5" ry="2.2" fill="#f4b3b3" opacity="0.7"/>
  <ellipse cx="126" cy="96" rx="3.5" ry="2.2" fill="#f4b3b3" opacity="0.7"/>
</svg>
